<?xml version="1.0" standalone="no"?>
<!DOCTYPE svg PUBLIC "-//W3C//DTD SVG 20010904//EN"
 "http://www.w3.org/TR/2001/REC-SVG-20010904/DTD/svg10.dtd">
<svg version="1.0" xmlns="http://www.w3.org/2000/svg"
 width="351.000000pt" height="453.000000pt" viewBox="0 0 351.000000 453.000000"
 preserveAspectRatio="xMidYMid meet">

<g transform="translate(0.000000,453.000000) scale(0.100000,-0.100000)"
fill="#000000" stroke="none">
<path d="M1065 4479 c-116 -11 -233 -62 -360 -156 -161 -119 -609 -563 -652
-646 -22 -43 -13 -57 52 -82 33 -12 193 -70 355 -129 162 -59 323 -118 358
-132 34 -13 69 -24 77 -24 8 0 22 16 30 36 23 55 99 164 147 211 61 60 198
139 292 169 146 47 408 44 569 -6 155 -48 335 -200 622 -525 73 -82 205 -221
292 -307 177 -176 199 -189 449 -281 66 -24 130 -50 142 -56 l22 -12 -1 223 0
223 -322 310 c-177 170 -448 431 -602 580 -278 269 -362 348 -548 518 l-96 88
-383 2 c-211 1 -410 -1 -443 -4z"/>
<path d="M2217 4478 c2 -5 41 -39 86 -77 96 -81 494 -457 757 -716 102 -100
232 -226 290 -279 l105 -97 3 173 c1 95 0 182 -2 194 -8 29 -538 562 -666 668
-169 141 -151 134 -382 138 -108 2 -194 0 -191 -4z"/>
<path d="M38 2921 c-1 -226 -2 -418 -2 -427 -1 -13 50 -33 224 -89 124 -40
326 -109 450 -154 295 -108 517 -187 780 -276 118 -40 253 -87 300 -105 47
-18 142 -52 212 -75 70 -24 198 -71 285 -104 151 -58 516 -193 818 -303 77
-28 187 -69 245 -92 l105 -41 0 404 0 405 -140 48 c-77 26 -214 77 -305 112
-243 94 -514 193 -790 289 -467 162 -817 293 -1090 407 -41 17 -129 51 -195
75 -239 87 -765 285 -877 330 -17 7 -18 -17 -20 -404z"/>
<path d="M1414 3294 c-4 -16 -8 -69 -8 -118 l-1 -89 215 -67 c228 -71 390
-127 479 -166 30 -14 55 -23 56 -22 1 2 5 44 8 95 l7 92 -39 48 c-55 69 -98
107 -165 147 -101 60 -148 73 -317 86 -85 6 -171 13 -191 17 -34 5 -38 3 -44
-23z"/>
<path d="M40 1803 l0 -188 144 -135 c155 -146 415 -396 1069 -1030 230 -223
428 -410 440 -416 15 -7 126 -8 367 -3 299 6 355 10 422 27 152 41 153 42 588
443 133 123 262 248 286 279 53 67 109 170 97 179 -11 10 -243 98 -433 164
-85 30 -202 72 -259 93 -99 36 -105 37 -115 20 -158 -269 -341 -421 -569 -473
-146 -33 -432 -15 -535 34 -67 32 -659 642 -783 806 -74 99 -180 178 -319 238
-92 40 -383 149 -397 149 -2 0 -3 -84 -3 -187z"/>
<path d="M1385 1598 c3 -57 8 -113 11 -125 4 -23 125 -125 259 -219 l70 -49
140 0 c158 0 180 7 234 72 34 41 68 130 55 143 -15 14 -209 89 -404 155 -102
34 -220 77 -263 94 -114 46 -110 49 -102 -71z"/>
<path d="M42 1063 l3 -242 30 -32 c44 -46 414 -393 578 -543 157 -142 198
-167 308 -190 79 -16 273 -36 352 -36 l47 0 -222 221 c-123 122 -338 330 -478
462 -140 133 -337 322 -438 422 l-183 180 3 -242z"/>
</g>
</svg>
